<svg width="72" height="60" viewBox="0 0 72 60" fill="none" xmlns="http://www.w3.org/2000/svg">
<path d="M52.0607 28.9393C52.6464 29.5251 52.6464 30.4749 52.0607 31.0607L42.5147 40.6066C41.9289 41.1924 40.9792 41.1924 40.3934 40.6066C39.8076 40.0208 39.8076 39.0711 40.3934 38.4853L48.8787 30L40.3934 21.5147C39.8076 20.9289 39.8076 19.9792 40.3934 19.3934C40.9792 18.8076 41.9289 18.8076 42.5147 19.3934L52.0607 28.9393ZM0 28.5L51 28.5V31.5L0 31.5L0 28.5Z" fill="#9B806C"/>
<circle cx="30" cy="30" r="28.5" transform="matrix(-1 0 0 1 72 0)" stroke="#9B806C" stroke-width="3"/>
</svg>
