<svg width="120" height="23" viewBox="0 0 120 23" fill="none" xmlns="http://www.w3.org/2000/svg">
<path d="M119.029 9.21311C119.152 9.46056 119.05 9.76052 118.803 9.88309L114.771 11.8805C114.523 12.003 114.223 11.9018 114.101 11.6544C113.978 11.4069 114.079 11.1069 114.327 10.9844L117.911 9.20892L116.136 5.62454C116.013 5.37709 116.114 5.07713 116.362 4.95456C116.609 4.83199 116.909 4.93323 117.032 5.18068L119.029 9.21311ZM1.2781 22.9157C1.04861 23.0693 0.738066 23.0078 0.584481 22.7783C0.430898 22.5488 0.492432 22.2383 0.721925 22.0847L1.2781 22.9157ZM113.132 7.59596L113.292 7.12222L113.132 7.59596ZM4.2511 19.8053C4.48548 19.6593 4.79385 19.7309 4.93986 19.9653C5.08588 20.1997 5.01424 20.508 4.77986 20.6541L4.2511 19.8053ZM11.9948 16.4801C11.7514 16.6105 11.4484 16.5188 11.318 16.2754C11.1876 16.032 11.2792 15.729 11.5226 15.5986L11.9948 16.4801ZM19.0528 11.8764C19.3043 11.7622 19.6006 11.8734 19.7148 12.1249C19.829 12.3763 19.7178 12.6727 19.4664 12.7869L19.0528 11.8764ZM27.163 9.59029C26.9047 9.68781 26.6162 9.55743 26.5187 9.29908C26.4212 9.04073 26.5516 8.75224 26.8099 8.65472L27.163 9.59029ZM34.7619 5.94675C35.026 5.86633 35.3054 6.01529 35.3858 6.27946C35.4662 6.54363 35.3173 6.82298 35.0531 6.9034L34.7619 5.94675ZM43.1016 4.7379C42.8328 4.80089 42.5637 4.634 42.5007 4.36514C42.4377 4.09628 42.6046 3.82726 42.8735 3.76427L43.1016 4.7379ZM51.1102 2.11623C51.3826 2.07093 51.6401 2.25502 51.6854 2.52742C51.7307 2.79982 51.5466 3.05738 51.2742 3.10268L51.1102 2.11623ZM59.5363 2.00451C59.2615 2.03194 59.0165 1.83142 58.9891 1.55664C58.9617 1.28186 59.1622 1.03688 59.437 1.00946L59.5363 2.00451ZM67.8182 0.448692C68.0941 0.439269 68.3255 0.655357 68.3349 0.931336C68.3443 1.20732 68.1283 1.43869 67.8523 1.44811L67.8182 0.448692ZM76.187 1.436C75.911 1.42738 75.6943 1.19664 75.7029 0.920634C75.7115 0.644625 75.9423 0.427865 76.2183 0.436491L76.187 1.436ZM84.6015 0.973236C84.8764 0.999881 85.0776 1.2443 85.0509 1.51915C85.0243 1.794 84.7799 1.99522 84.505 1.96857L84.6015 0.973236ZM92.7695 3.04366C92.4969 2.9991 92.3121 2.74205 92.3567 2.46953C92.4012 2.197 92.6583 2.0122 92.9308 2.05676L92.7695 3.04366ZM101.172 3.68266C101.441 3.74494 101.609 4.01352 101.546 4.28255C101.484 4.55158 101.215 4.71918 100.946 4.6569L101.172 3.68266ZM109.001 6.80128C108.737 6.72156 108.587 6.44261 108.667 6.17822C108.746 5.91384 109.025 5.76414 109.29 5.84386L109.001 6.80128ZM114.654 7.58198C114.916 7.67029 115.056 7.95398 114.968 8.21562C114.88 8.47726 114.596 8.61778 114.334 8.52948L114.654 7.58198ZM117.059 9.44901C116.797 9.36071 116.657 9.07703 116.745 8.81538C116.833 8.55374 117.117 8.41322 117.379 8.50152L117.059 9.44901ZM0.721925 22.0847C1.88807 21.3043 3.06463 20.5444 4.2511 19.8053L4.77986 20.6541C3.60262 21.3875 2.43519 22.1414 1.2781 22.9157L0.721925 22.0847ZM11.5226 15.5986C13.9981 14.2725 16.5096 13.0316 19.0528 11.8764L19.4664 12.7869C16.943 13.9331 14.451 15.1643 11.9948 16.4801L11.5226 15.5986ZM26.8099 8.65472C29.4343 7.66409 32.0865 6.76124 34.7619 5.94675L35.0531 6.9034C32.3985 7.71155 29.767 8.60738 27.163 9.59029L26.8099 8.65472ZM42.8735 3.76427C45.6017 3.12504 48.3488 2.5755 51.1102 2.11623L51.2742 3.10268C48.5343 3.55837 45.8086 4.10365 43.1016 4.7379L42.8735 3.76427ZM59.437 1.00946C62.2224 0.731448 65.0177 0.544324 67.8182 0.448692L67.8523 1.44811C65.0736 1.543 62.3001 1.72867 59.5363 2.00451L59.437 1.00946ZM76.2183 0.436491C79.0135 0.523833 81.8094 0.70255 84.6015 0.973236L84.505 1.96857C81.7347 1.69999 78.9605 1.52267 76.187 1.436L76.2183 0.436491ZM92.9308 2.05676C95.6875 2.50751 98.436 3.04928 101.172 3.68266L100.946 4.6569C98.2318 4.02844 95.5047 3.49089 92.7695 3.04366L92.9308 2.05676ZM109.29 5.84386C110.628 6.24741 111.962 6.67351 113.292 7.12222L112.972 8.06971C111.653 7.62448 110.329 7.2017 109.001 6.80128L109.29 5.84386ZM113.292 7.12222L114.654 7.58198L114.334 8.52948L112.972 8.06971L113.292 7.12222ZM117.379 8.50152L118.741 8.96129L118.421 9.90878L117.059 9.44901L117.379 8.50152Z" fill="white"/>
</svg>
