<svg width="24" height="93" viewBox="0 0 24 93" fill="none" xmlns="http://www.w3.org/2000/svg">
<path d="M1.3823 92.992C1.10698 93.0133 0.866534 92.8073 0.845247 92.532L0.498365 88.0454C0.477079 87.7701 0.683014 87.5296 0.958335 87.5084C1.23366 87.4871 1.4741 87.693 1.49539 87.9683L1.80373 91.9564L5.79183 91.6481C6.06715 91.6268 6.3076 91.8327 6.32888 92.108C6.35017 92.3834 6.14423 92.6238 5.86891 92.6451L1.3823 92.992ZM3.51433 1.52546C3.31163 1.33793 3.29934 1.02158 3.48687 0.818888C3.6744 0.616191 3.99075 0.603899 4.19344 0.791433L3.51433 1.52546ZM8.66113 83.9498L8.28137 83.6246L8.66113 83.9498ZM7.46568 4.05677C7.65361 4.25911 7.64193 4.57547 7.4396 4.7634C7.23727 4.95133 6.9209 4.93965 6.73297 4.73732L7.46568 4.05677ZM12.384 11.8419C12.2292 11.6132 12.2891 11.3023 12.5178 11.1475C12.7465 10.9927 13.0574 11.0526 13.2122 11.2813L12.384 11.8419ZM17.7823 19.3022C17.9001 19.552 17.7931 19.8499 17.5434 19.9678C17.2936 20.0856 16.9957 19.9786 16.8778 19.7289L17.7823 19.3022ZM20.1085 28.2133C20.0303 27.9484 20.1816 27.6703 20.4465 27.5922C20.7113 27.514 20.9894 27.6653 21.0676 27.9301L20.1085 28.2133ZM22.9972 36.9585C23.0342 37.2322 22.8423 37.484 22.5686 37.5209C22.295 37.5579 22.0432 37.366 22.0062 37.0923L22.9972 36.9585ZM22.5325 46.1565C22.5376 45.8804 22.7655 45.6607 23.0416 45.6657C23.3177 45.6707 23.5374 45.8986 23.5324 46.1747L22.5325 46.1565ZM22.6606 55.3657C22.6136 55.6379 22.3549 55.8203 22.0828 55.7733C21.8107 55.7263 21.6282 55.4676 21.6752 55.1955L22.6606 55.3657ZM19.4482 63.9968C19.5364 63.7351 19.8199 63.5944 20.0816 63.6825C20.3433 63.7706 20.4841 64.0542 20.396 64.3159L19.4482 63.9968ZM16.7849 72.8119C16.6576 73.0569 16.3558 73.1524 16.1107 73.0251C15.8657 72.8978 15.7702 72.596 15.8975 72.3509L16.7849 72.8119ZM11.1067 80.0618C11.2699 79.8391 11.5828 79.7908 11.8055 79.9541C12.0282 80.1173 12.0764 80.4302 11.9132 80.6529L11.1067 80.0618ZM7.21154 86.411C7.03191 86.6207 6.71627 86.6451 6.50654 86.4655C6.2968 86.2859 6.2724 85.9702 6.45203 85.7605L7.21154 86.411ZM2.79335 90.0323C2.97298 89.8226 3.28862 89.7982 3.49835 89.9778C3.70808 90.1574 3.73249 90.4731 3.55286 90.6828L2.79335 90.0323ZM4.19344 0.791433C5.33396 1.84663 6.42477 2.93608 7.46568 4.05677L6.73297 4.73732C5.70922 3.6351 4.63629 2.5635 3.51433 1.52546L4.19344 0.791433ZM13.2122 11.2813C14.9543 13.8551 16.4782 16.5378 17.7823 19.3022L16.8778 19.7289C15.5956 17.0105 14.0971 14.3727 12.384 11.8419L13.2122 11.2813ZM21.0676 27.9301C21.9421 30.8925 22.5858 33.9116 22.9972 36.9585L22.0062 37.0923C21.6016 34.0957 20.9685 31.1265 20.1085 28.2133L21.0676 27.9301ZM23.5324 46.1747C23.4764 49.2488 23.1864 52.322 22.6606 55.3657L21.6752 55.1955C22.1922 52.2023 22.4775 49.1799 22.5325 46.1565L23.5324 46.1747ZM20.396 64.3159C19.4207 67.2127 18.2175 70.0537 16.7849 72.8119L15.8975 72.3509C17.3061 69.6389 18.4892 66.8453 19.4482 63.9968L20.396 64.3159ZM11.9132 80.6529C11.009 81.8866 10.0516 83.0949 9.04088 84.2751L8.28137 83.6246C9.27566 82.4637 10.2174 81.2751 11.1067 80.0618L11.9132 80.6529ZM9.04088 84.2751L7.21154 86.411L6.45203 85.7605L8.28137 83.6246L9.04088 84.2751ZM3.55286 90.6828L1.72351 92.8187L0.964004 92.1682L2.79335 90.0323L3.55286 90.6828Z" fill="white"/>
</svg>
