<svg width="124" height="124" viewBox="0 0 124 124" fill="none" xmlns="http://www.w3.org/2000/svg">
<g filter="url(#filter0_b_14_4189)">
<circle cx="62.0002" cy="62.0002" r="62.0002" fill="#2E2620" fill-opacity="0.2"/>
<circle cx="62.0002" cy="62.0002" r="61.6963" stroke="white" stroke-opacity="0.24" stroke-width="0.607846"/>
</g>
<g filter="url(#filter1_i_14_4189)">
<path d="M95 62.0002C95 80.2255 80.2255 95.0001 62.0002 95.0001C43.7749 95.0001 29.0004 80.2255 29.0004 62.0002C29.0004 43.7749 43.7749 29.0004 62.0002 29.0004C80.2255 29.0004 95 43.7749 95 62.0002Z" fill="#9B806C"/>
</g>
<path opacity="0.48" d="M14.5543 46.2472L15.3902 46.4232L14.6915 49.7409L20.3864 50.9402L20.2049 51.8023L13.674 50.4269L14.5543 46.2472Z" fill="white"/>
<path opacity="0.48" d="M18.6255 36.6729L18.9595 35.8577L25.1352 38.3886L24.8011 39.2037L23.5907 38.7077C24.2636 39.647 24.3757 40.6643 23.9269 41.7594C23.5658 42.6405 22.9441 43.2657 22.0619 43.635C21.183 43.9961 20.2907 43.9911 19.3849 43.6199C18.4791 43.2487 17.8399 42.6261 17.4672 41.7521C17.0979 40.8698 17.0937 39.9882 17.4548 39.1071C17.9036 38.012 18.6973 37.3659 19.8359 37.1689L18.6255 36.6729ZM21.749 42.8144C22.4107 42.5374 22.8816 42.0572 23.1617 41.3737C23.4418 40.6903 23.4433 40.0177 23.1663 39.356C22.8811 38.691 22.3967 38.2184 21.7133 37.9383C21.0298 37.6582 20.3573 37.6567 19.6956 37.9337C19.0257 38.2073 18.5507 38.6859 18.2706 39.3693C17.9905 40.0527 17.9931 40.727 18.2783 41.3921C18.5553 42.0538 19.0355 42.5246 19.719 42.8047C20.4024 43.0848 21.0791 43.088 21.749 42.8144Z" fill="white"/>
<path opacity="0.48" d="M24.3177 28.8415C24.875 28.0695 25.6231 27.6108 26.5621 27.4655C27.5063 27.313 28.3753 27.5232 29.169 28.0961C29.9627 28.669 30.4358 29.4276 30.5883 30.3718C30.7461 31.3088 30.5463 32.1633 29.989 32.9353C29.2963 33.895 28.3734 34.3373 27.2203 34.2622L30.4456 36.5904L29.9299 37.3047L22.3538 31.8359L22.8694 31.1215L23.9301 31.8872C23.4958 30.8164 23.625 29.8012 24.3177 28.8415ZM27.5466 33.5593C28.2547 33.445 28.8249 33.0883 29.2572 32.4894C29.6895 31.8906 29.8485 31.237 29.7341 30.5289C29.6125 29.8155 29.2522 29.2427 28.6534 28.8104C28.0545 28.3781 27.401 28.2192 26.6928 28.3336C25.9774 28.4427 25.4036 28.7968 24.9713 29.3956C24.539 29.9945 24.3837 30.6506 24.5053 31.364C24.6197 32.0722 24.9763 32.6424 25.5752 33.0747C26.1741 33.507 26.8312 33.6685 27.5466 33.5593Z" fill="white"/>
<path opacity="0.48" d="M34.8828 19.5726L35.5514 18.999L39.8971 24.0645L39.2285 24.6381L38.3767 23.6453C38.5481 24.788 38.1846 25.7447 37.2863 26.5153C36.5637 27.1353 35.7255 27.4088 34.7718 27.3359C33.8249 27.2572 33.0328 26.8463 32.3954 26.1034C31.758 25.3605 31.4724 24.5151 31.5386 23.5672C31.6116 22.6135 32.0094 21.8267 32.732 21.2067C33.6303 20.4361 34.6311 20.2223 35.7345 20.5655L34.8828 19.5726ZM34.867 26.4628C35.5822 26.5175 36.2202 26.3044 36.7807 25.8235C37.3413 25.3426 37.6489 24.7445 37.7036 24.0292C37.7525 23.3072 37.5365 22.6659 37.0556 22.1054C36.5747 21.5448 35.9766 21.2371 35.2614 21.1824C34.5403 21.121 33.8995 21.3307 33.3389 21.8116C32.7784 22.2926 32.4736 22.894 32.4247 23.616C32.37 24.3313 32.5831 24.9692 33.064 25.5298C33.545 26.0903 34.146 26.4014 34.867 26.4628Z" fill="white"/>
<path opacity="0.48" d="M44.6782 14.8094L45.4633 14.4098L48.4908 20.3578L47.7056 20.7574L46.3857 18.1641L42.9596 19.9079L44.2796 22.5012L43.4945 22.9008L40.467 16.9529L41.2522 16.5532L42.5721 19.1465L45.9982 17.4027L44.6782 14.8094Z" fill="white"/>
<path opacity="0.48" d="M55.6882 12.1202L55.8928 12.9496L53.5989 13.5154L54.9928 19.1659L54.1374 19.3769L52.7436 13.7264L50.4497 14.2923L50.2451 13.4629L55.6882 12.1202Z" fill="white"/>
<path opacity="0.48" d="M65.2516 11.8172L65.998 11.7768L66.3584 18.4412L65.4787 18.4888L65.2012 13.3572L61.5067 18.7035L60.7603 18.7439L60.4 12.0795L61.2797 12.0319L61.5571 17.1635L65.2516 11.8172Z" fill="white"/>
<path opacity="0.48" d="M76.4689 13.8624L75.2937 20.4323L74.4265 20.2772L74.8777 17.7543L73.7477 17.5522L71.273 19.7131L70.1692 19.5157L72.7012 17.3379C72.1898 17.1651 71.7953 16.8685 71.5179 16.4483C71.2405 16.028 71.1489 15.5551 71.2429 15.0295C71.3494 14.4338 71.6466 13.9853 72.1345 13.6838C72.6326 13.3751 73.1883 13.2757 73.8015 13.3853L76.4689 13.8624ZM73.2233 16.6177L75.0235 16.9397L75.4512 14.5483L73.6511 14.2263C73.2832 14.1605 72.9482 14.2136 72.6463 14.3855C72.3531 14.5591 72.1743 14.8255 72.1101 15.1846C72.0458 15.5438 72.1212 15.8555 72.336 16.12C72.5596 16.386 72.8554 16.5519 73.2233 16.6177Z" fill="white"/>
<path opacity="0.48" d="M97.0841 26.1715L97.7772 26.7154L93.6569 31.9658L92.9638 31.4219L94.7603 29.1327L91.736 26.7594L89.9396 29.0486L89.2465 28.5047L93.3668 23.2543L94.0599 23.7982L92.2634 26.0874L95.2877 28.4607L97.0841 26.1715Z" fill="white"/>
<path opacity="0.48" d="M104.783 35.7322L105.337 36.4173L100.147 40.6137L99.593 39.9286L100.61 39.1061C99.4629 39.2441 98.5172 38.853 97.7731 37.9326C97.1744 37.1922 96.9254 36.3465 97.0261 35.3953C97.1323 34.4511 97.566 33.6713 98.3272 33.0558C99.0884 32.4403 99.9418 32.1795 100.887 32.2732C101.838 32.3739 102.613 32.7944 103.212 33.5348C103.956 34.4552 104.141 35.4618 103.766 36.5547L104.783 35.7322ZM97.896 35.5159C97.8205 36.2292 98.0149 36.8731 98.4793 37.4474C98.9437 38.0217 99.5326 38.3467 100.246 38.4222C100.966 38.4921 101.614 38.2948 102.188 37.8304C102.762 37.366 103.087 36.7772 103.163 36.0638C103.245 35.3449 103.054 34.6982 102.59 34.1239C102.125 33.5495 101.533 33.2274 100.813 33.1575C100.099 33.082 99.4555 33.2765 98.8811 33.7409C98.3068 34.2053 97.9784 34.7969 97.896 35.5159Z" fill="white"/>
<path opacity="0.48" d="M108.55 59.5859C108.398 60.3479 107.94 60.7883 107.175 60.9071C106.638 60.9903 106.166 60.879 105.759 60.5731C105.361 60.2746 105.11 59.7912 105.007 59.1229L104.509 55.9177L111.104 54.8938L111.561 57.8352C111.66 58.4771 111.57 58.9999 111.291 59.4035C111.02 59.8058 110.625 60.0472 110.107 60.1277C109.447 60.2301 108.928 60.0495 108.55 59.5859ZM110.717 57.9663L110.395 55.8954L108.39 56.2067L108.712 58.2775C108.83 59.0426 109.233 59.3718 109.919 59.2653C110.226 59.2176 110.448 59.0796 110.584 58.8514C110.73 58.6306 110.774 58.3356 110.717 57.9663ZM105.851 58.9918C105.911 59.3787 106.049 59.659 106.265 59.8326C106.482 60.015 106.758 60.0802 107.092 60.0283C107.4 59.9805 107.626 59.8375 107.769 59.5991C107.922 59.3682 107.969 59.0593 107.908 58.6724L107.546 56.3377L105.488 56.6572L105.851 58.9918Z" fill="white"/>
<path opacity="0.48" d="M104.457 67.8619C104.508 66.8576 104.883 66.0389 105.583 65.4058C106.292 64.7731 107.14 64.4815 108.126 64.5311C109.113 64.5806 109.922 64.9554 110.555 65.6554C111.197 66.3559 111.493 67.2083 111.443 68.2126C111.41 68.8703 111.22 69.4533 110.874 69.9616C110.536 70.4703 110.095 70.8313 109.55 71.0445L109.173 70.3039C109.582 70.1462 109.912 69.8732 110.163 69.4848C110.422 69.1058 110.565 68.6675 110.59 68.1698C110.627 67.4321 110.4 66.797 109.91 66.2645C109.429 65.7325 108.82 65.448 108.082 65.411C107.344 65.3739 106.705 65.5958 106.164 66.0765C105.632 66.5576 105.347 67.167 105.31 67.9047C105.285 68.4024 105.379 68.8526 105.59 69.2553C105.81 69.6584 106.115 69.9811 106.504 70.2233L106.04 70.9351C105.521 70.6328 105.119 70.2073 104.835 69.6584C104.55 69.1095 104.425 68.5107 104.457 67.8619Z" fill="white"/>
<path opacity="0.48" d="M108.747 79.0561C108.477 80.0065 107.922 80.677 107.081 81.0677C106.246 81.4693 105.37 81.5403 104.454 81.2809C104.36 81.2542 104.23 81.208 104.063 81.1424L105.66 75.5043C104.985 75.4056 104.389 75.5329 103.873 75.8861C103.363 76.2503 103.011 76.7749 102.817 77.4599C102.679 77.9479 102.658 78.3953 102.756 78.8022C102.86 79.22 103.049 79.5648 103.323 79.8368L102.675 80.458C102.302 80.0469 102.051 79.5598 101.924 78.9966C101.797 78.4334 101.822 77.8392 101.999 77.2142C102.285 76.2039 102.835 75.4717 103.648 75.0176C104.461 74.5634 105.355 74.4746 106.331 74.751C107.29 75.0227 108.002 75.5619 108.467 76.3688C108.932 77.1757 109.026 78.0715 108.747 79.0561ZM107.925 78.8233C108.114 78.1555 108.072 77.5377 107.798 76.9699C107.53 76.4131 107.091 76.0022 106.482 75.7371L105.125 80.5276C105.826 80.6335 106.426 80.5215 106.927 80.1916C107.427 79.8616 107.76 79.4055 107.925 78.8233Z" fill="white"/>
<path opacity="0.48" d="M90.9783 98.124C90.2724 98.4486 89.6467 98.3362 89.1012 97.7868C88.7188 97.4016 88.5316 96.9541 88.5398 96.4445C88.5479 95.9474 88.7919 95.4606 89.2719 94.9841L91.5738 92.6989L96.2759 97.4353L94.1635 99.5325C93.7025 99.9902 93.2265 100.224 92.7357 100.235C92.2511 100.252 91.8238 100.075 91.4539 99.702C90.9837 99.2283 90.8252 98.7023 90.9783 98.124ZM93.5616 98.9262L95.0488 97.4497L93.6194 96.0099L92.1321 97.4863C91.5827 98.0318 91.5525 98.5508 92.0415 99.0434C92.261 99.2644 92.5029 99.3628 92.7672 99.3386C93.0316 99.327 93.2964 99.1895 93.5616 98.9262ZM89.8737 95.5904C89.5959 95.8663 89.4501 96.1426 89.4366 96.4194C89.4166 96.7025 89.5258 96.964 89.7641 97.204C89.9835 97.425 90.2317 97.5235 90.5086 97.4993C90.7856 97.4877 91.0629 97.344 91.3408 97.0682L93.0175 95.4036L91.5504 93.9258L89.8737 95.5904Z" fill="white"/>
<path opacity="0.48" d="M84.4104 106.217L83.7856 106.627L80.1206 101.049L80.8569 100.566L83.679 104.86L84.1813 98.3812L84.806 97.9707L88.471 103.548L87.7347 104.032L84.9127 99.7374L84.4104 106.217Z" fill="white"/>
<path opacity="0.48" d="M71.2214 104.886L70.3454 105.211L69.4262 102.733L70.2522 102.427L70.8743 104.104L75.9804 102.209L75.3583 100.532L76.1843 100.226L77.1035 102.704L76.3401 102.987C76.1219 103.704 76.2016 104.571 76.5792 105.589L77.7259 108.68L73.2455 110.342L71.2214 104.886ZM75.3389 103.359L72.0474 104.58L73.7744 109.235L76.6028 108.186L75.7532 105.896C75.3973 104.936 75.2592 104.09 75.3389 103.359Z" fill="white"/>
<path opacity="0.48" d="M64.5515 108.728C63.9336 108.807 63.388 108.68 62.9147 108.345C62.4336 108.021 62.1547 107.559 62.078 106.959C62.0012 106.358 62.1543 105.836 62.5372 105.393C62.9123 104.959 63.4089 104.703 64.0268 104.624L66.7146 104.28L67.561 110.9L66.6871 111.012L66.3655 108.496L64.5515 108.728ZM61.7352 111.645L60.8613 111.757L60.0149 105.137L60.8888 105.025L61.7352 111.645ZM64.1351 105.471C63.7644 105.518 63.4651 105.669 63.2373 105.922C63.0007 106.177 62.9056 106.485 62.9519 106.847C62.9981 107.209 63.1678 107.483 63.4608 107.67C63.745 107.858 64.0724 107.928 64.4432 107.881L66.2571 107.649L65.949 105.239L64.1351 105.471Z" fill="white"/>
<path opacity="0.48" d="M38.1261 105.499C37.2533 105.119 36.6463 104.485 36.305 103.598C35.9555 102.708 35.9764 101.814 36.3678 100.917C36.7592 100.02 37.4001 99.3964 38.2904 99.0469C39.1725 98.6939 40.05 98.7077 40.9227 99.0884C42.0076 99.5616 42.6357 100.37 42.8071 101.512L44.3975 97.8664L45.205 98.2186L41.469 106.783L40.6615 106.431L41.1846 105.232C40.2304 105.883 39.2109 105.973 38.1261 105.499ZM42.051 101.343C41.7889 100.675 41.3193 100.193 40.6423 99.8981C39.9653 99.6028 39.293 99.5862 38.6252 99.8483C37.954 100.119 37.4706 100.592 37.1753 101.269C36.88 101.946 36.8634 102.619 37.1255 103.286C37.3841 103.962 37.8518 104.448 38.5288 104.743C39.2058 105.038 39.88 105.051 40.5512 104.781C41.219 104.519 41.7005 104.049 41.9958 103.372C42.2912 102.695 42.3095 102.019 42.051 101.343Z" fill="white"/>
<path opacity="0.48" d="M26.7386 97.1066L26.0377 96.5729L30.081 91.2629L30.7819 91.7966L29.9894 92.8374C31.071 92.4306 32.0826 92.5857 33.0242 93.3027C33.7817 93.8795 34.2247 94.6418 34.3531 95.5896C34.4743 96.532 34.2385 97.3926 33.6454 98.1714C33.0524 98.9502 32.2856 99.4065 31.3448 99.5402C30.3971 99.6686 29.5444 99.4444 28.7868 98.8675C27.8452 98.1505 27.4266 97.2166 27.5311 96.0658L26.7386 97.1066ZM33.4794 95.6794C33.3831 94.9685 33.0412 94.3894 32.4536 93.9419C31.8659 93.4945 31.2167 93.3189 30.5058 93.4151C29.7896 93.5185 29.2077 93.864 28.7603 94.4516C28.3128 95.0392 28.1372 95.6885 28.2335 96.3993C28.3244 97.1173 28.6636 97.7 29.2513 98.1474C29.8389 98.5949 30.4908 98.7669 31.2071 98.6636C31.9179 98.5673 32.4971 98.2254 32.9445 97.6377C33.392 97.0501 33.5703 96.3973 33.4794 95.6794Z" fill="white"/>
<path opacity="0.48" d="M26.4129 85.6379C27.0199 86.383 27.2808 87.2035 27.1956 88.0993C27.1035 89.0007 26.6642 89.7718 25.8776 90.4125C24.9945 91.1319 24.2116 91.5516 23.5289 91.6716C22.8393 91.7972 21.9753 91.6172 20.937 91.1316C20.7374 91.0417 20.4847 90.9147 20.1789 90.7506C19.8675 90.5796 19.6301 90.4573 19.4669 90.3837C19.298 90.3032 19.1034 90.2264 18.8832 90.1533C18.656 90.0858 18.4495 90.0647 18.2635 90.09C18.0775 90.1153 17.8898 90.1878 17.7004 90.3076L17.5725 89.5166C17.7606 89.4093 17.9608 89.338 18.1731 89.3028C18.3854 89.2676 18.573 89.2583 18.7357 89.2749C18.8929 89.2846 19.1025 89.3376 19.3646 89.434C19.6143 89.5291 19.8054 89.6087 19.938 89.6728C20.0581 89.7357 20.271 89.8492 20.5768 90.0133C20.877 90.1704 21.0781 90.2764 21.18 90.331C21.7804 90.6454 22.2872 90.8237 22.7004 90.8659C23.1066 90.9137 23.5285 90.8398 23.9659 90.6441C23.4644 90.6625 22.995 90.5513 22.5579 90.3105C22.1082 90.0685 21.7429 89.775 21.4618 89.43C20.8998 88.7401 20.6638 87.9854 20.7538 87.166C20.8314 86.3454 21.222 85.6484 21.9257 85.0751C22.6226 84.5075 23.3988 84.2768 24.2545 84.3832C25.0976 84.4883 25.8171 84.9066 26.4129 85.6379ZM25.7298 86.1943C25.2914 85.6561 24.7696 85.3467 24.1643 85.2659C23.5465 85.1838 22.9858 85.3479 22.4821 85.7581C21.9716 86.1741 21.6891 86.6797 21.6346 87.275C21.5676 87.869 21.756 88.4386 22.2001 88.9836C22.5991 89.4735 23.1168 89.792 23.7533 89.9393C24.3828 90.0921 24.9529 89.9606 25.4634 89.5447C25.9878 89.1176 26.2729 88.5869 26.3187 87.9528C26.3589 87.3117 26.1626 86.7255 25.7298 86.1943Z" fill="white"/>
<path opacity="0.48" d="M19.8155 75.0123C20.7126 75.3256 21.3766 75.9217 21.8076 76.8006C22.2387 77.6794 22.3054 78.5734 22.0079 79.4825C21.6985 80.3875 21.1004 81.0575 20.2136 81.4925C19.3267 81.9274 18.4348 81.9882 17.5378 81.6749C16.6288 81.3575 15.9588 80.7594 15.5278 79.8805C15.0967 79.0017 15.0359 78.1097 15.3453 77.2047C15.6428 76.2956 16.235 75.6236 17.1218 75.1886C18.0087 74.7537 18.9066 74.6949 19.8155 75.0123ZM21.1804 79.1896C21.4125 78.5108 21.3659 77.8399 21.0406 77.1767C20.7154 76.5136 20.2134 76.066 19.5346 75.834C18.8479 75.6058 18.1729 75.6544 17.5098 75.9796C16.8466 76.3049 16.399 76.8069 16.167 77.4856C15.927 78.1683 15.9696 78.8412 16.2948 79.5044C16.62 80.1675 17.126 80.6131 17.8128 80.8413C18.4915 81.0733 19.1625 81.0267 19.8256 80.7015C20.4888 80.3762 20.9404 79.8723 21.1804 79.1896Z" fill="white"/>
<path opacity="0.48" d="M12.3584 66.8978L13.1923 66.7122L13.7056 69.0184L19.3864 67.754L19.5778 68.6139L13.897 69.8783L14.4103 72.1845L13.5764 72.3701L12.3584 66.8978Z" fill="white"/>
<path d="M67.3218 69.1179H53.5595V66.1194C53.5595 64.1973 53.9439 62.5058 54.7128 61.045C55.5329 59.5586 56.8784 57.9568 58.7492 56.2397C60.5175 54.6252 61.7221 53.331 62.3628 52.3571C63.0291 51.3063 63.3623 50.1531 63.3623 48.8973C63.3623 46.7702 62.4396 45.7066 60.5944 45.7066C58.6723 45.7066 57.7113 46.7702 57.7113 48.8973V51.2423H53.598V49.0126C53.598 46.7574 54.2002 45.0018 55.4047 43.7461C56.6349 42.4647 58.3904 41.824 60.6713 41.824C62.9522 41.824 64.6949 42.439 65.8994 43.6692C67.1296 44.8993 67.7447 46.6036 67.7447 48.782C67.7447 50.4991 67.2834 52.1136 66.3607 53.6257C65.4125 55.1634 63.8236 56.9317 61.5939 58.9307C60.1844 60.2121 59.2105 61.2757 58.6723 62.1214C58.1598 62.9671 57.9035 63.8769 57.9035 64.8508V65.2352H67.3218V69.1179Z" fill="#211A14"/>
<path d="M51.9451 83.4343H50.4843V74.4645H54.5079V75.7587H51.9451V83.4343ZM55.2368 81.1534V76.7454C55.2368 75.9766 55.4419 75.3828 55.8519 74.9642C56.2705 74.5457 56.8642 74.3364 57.6331 74.3364C58.4104 74.3364 59.0042 74.5457 59.4142 74.9642C59.8328 75.3828 60.0421 75.9766 60.0421 76.7454V81.1534C60.0421 81.9223 59.8328 82.516 59.4142 82.9346C58.9956 83.3532 58.4019 83.5625 57.6331 83.5625C56.8642 83.5625 56.2705 83.3532 55.8519 82.9346C55.4419 82.516 55.2368 81.9223 55.2368 81.1534ZM57.6331 82.2682C58.2652 82.2682 58.5813 81.9223 58.5813 81.2303V76.6685C58.5813 75.9766 58.2652 75.6306 57.6331 75.6306C57.0094 75.6306 56.6976 75.9766 56.6976 76.6685V81.2303C56.6976 81.9223 57.0094 82.2682 57.6331 82.2682ZM66.5538 74.4645V82.1401H67.3227V84.6388H65.8619V83.4343H62.1843V84.6388H60.7363V82.1401H61.5692C61.7571 81.9522 61.8639 81.6019 61.8895 81.0894L62.1586 74.4645H66.5538ZM62.9531 82.1401H65.093V75.7587H63.5297L63.3503 81.0125C63.3332 81.4738 63.2008 81.8497 62.9531 82.1401ZM73.2015 83.4343H71.7151L71.4204 81.6916H69.447L69.1395 83.4343H67.7812L69.4983 74.4645H71.4716L73.2015 83.4343ZM70.4337 75.9766L69.6648 80.423H71.2025L70.4337 75.9766Z" fill="#211A14"/>
<defs>
<filter id="filter0_b_14_4189" x="-5.81848" y="-5.81848" width="135.637" height="135.637" filterUnits="userSpaceOnUse" color-interpolation-filters="sRGB">
<feFlood flood-opacity="0" result="BackgroundImageFix"/>
<feGaussianBlur in="BackgroundImageFix" stdDeviation="2.90924"/>
<feComposite in2="SourceAlpha" operator="in" result="effect1_backgroundBlur_14_4189"/>
<feBlend mode="normal" in="SourceGraphic" in2="effect1_backgroundBlur_14_4189" result="shape"/>
</filter>
<filter id="filter1_i_14_4189" x="29.0004" y="29.0004" width="66.9996" height="66.9996" filterUnits="userSpaceOnUse" color-interpolation-filters="sRGB">
<feFlood flood-opacity="0" result="BackgroundImageFix"/>
<feBlend mode="normal" in="SourceGraphic" in2="BackgroundImageFix" result="shape"/>
<feColorMatrix in="SourceAlpha" type="matrix" values="0 0 0 0 0 0 0 0 0 0 0 0 0 0 0 0 0 0 127 0" result="hardAlpha"/>
<feOffset dx="1" dy="1"/>
<feGaussianBlur stdDeviation="3.00298"/>
<feComposite in2="hardAlpha" operator="arithmetic" k2="-1" k3="1"/>
<feColorMatrix type="matrix" values="0 0 0 0 1 0 0 0 0 1 0 0 0 0 1 0 0 0 0.55 0"/>
<feBlend mode="normal" in2="shape" result="effect1_innerShadow_14_4189"/>
</filter>
</defs>
</svg>
