<svg width="175" height="32" viewBox="0 0 175 32" fill="none" xmlns="http://www.w3.org/2000/svg">
<path d="M6.69203 0.959998H7.53203C9.37203 0.959998 10.692 1.37333 11.492 2.2C12.292 3.02667 12.692 4.33333 12.692 6.12V11H8.33203V6.72C8.33203 5.54667 7.90536 4.96 7.05203 4.96C6.54536 4.96 6.1987 5.12 6.01203 5.44C5.82536 5.76 5.73203 6.29333 5.73203 7.04V7.6C5.73203 8.45333 5.85203 9.18667 6.09203 9.8C6.33203 10.4133 6.82537 11.2 7.57203 12.16L10.452 15.88C11.492 17.24 12.1987 18.4267 12.572 19.44C12.9454 20.4267 13.132 21.7467 13.132 23.4V24.36C13.132 29 11.1854 31.32 7.29203 31.32H6.41203C2.73203 31.32 0.892031 29.44 0.892031 25.68V19.72H5.37203V24.92C5.37203 26.3067 5.86536 27 6.85203 27C7.38536 27 7.7587 26.8133 7.97203 26.44C8.21203 26.04 8.33203 25.3733 8.33203 24.44V23.76C8.33203 22.6667 8.22536 21.8267 8.01203 21.24C7.7987 20.6533 7.29203 19.8267 6.49203 18.76L3.61203 15.08C2.6787 13.8533 2.02536 12.7067 1.65203 11.64C1.30536 10.5467 1.13203 9.24 1.13203 7.72V6.76C1.13203 2.89333 2.98536 0.959998 6.69203 0.959998ZM19.0923 17.92V31H14.5723V1.24H19.0923V13.16H22.1723V1.24H26.6923V31H22.1723V17.92H19.0923ZM36.0777 31L35.4777 25.4H32.1577L31.5977 31H27.5577L31.1977 1.24H36.5577L40.4377 31H36.0777ZM33.7977 9.96L32.6377 20.96H34.9977L33.7977 9.96ZM41.3302 31V1.24H47.1302L49.2902 16.96L51.4902 1.24H56.8902V31H52.6502V11.76L49.9302 31H48.1302L45.3702 11.76V31H41.3302ZM70.953 7.76V24.36C70.953 29.0267 69.033 31.36 65.193 31.36H64.433C60.5396 31.36 58.593 29.0267 58.593 24.36V7.8C58.593 3.24 60.5263 0.959998 64.393 0.959998H65.153C67.233 0.959998 68.713 1.54667 69.593 2.72C70.4996 3.89333 70.953 5.57333 70.953 7.76ZM66.353 24.68V7.56C66.353 6.04 65.833 5.28 64.793 5.28C63.7263 5.28 63.193 6.04 63.193 7.56V24.68C63.193 26.2 63.7396 26.96 64.833 26.96C65.8463 26.96 66.353 26.2 66.353 24.68ZM75.5383 31L71.7783 1.24H76.3783L78.4183 21.72L80.4983 1.24H84.7783L81.0183 31H75.5383ZM85.4642 17.12H91.1042V21.04H85.4642V17.12ZM100.058 24.96V18.04H104.498V24.92C104.498 29.2133 102.698 31.36 99.0983 31.36H98.0983C94.3916 31.36 92.5383 29.2667 92.5383 25.08V6.92C92.5383 5.21333 92.9649 3.8 93.8183 2.68C94.6716 1.53333 96.0449 0.959998 97.9383 0.959998H98.9783C100.152 0.959998 101.125 1.13333 101.898 1.48C102.698 1.82667 103.272 2.33333 103.618 3C103.965 3.66667 104.192 4.32 104.298 4.96C104.432 5.57333 104.498 6.30667 104.498 7.16V12.48H100.058V7.24C100.058 5.93333 99.5516 5.28 98.5383 5.28C98.0049 5.28 97.6316 5.44 97.4183 5.76C97.2316 6.05333 97.1383 6.54667 97.1383 7.24V24.92C97.1383 26.28 97.6183 26.96 98.5783 26.96C99.5649 26.96 100.058 26.2933 100.058 24.96ZM113.656 31L113.056 25.4H109.736L109.176 31H105.136L108.776 1.24H114.136L118.016 31H113.656ZM111.376 9.96L110.216 20.96H112.576L111.376 9.96ZM126.068 18.64H123.428V31H118.908V1.24H126.068C127.695 1.24 128.868 1.62667 129.588 2.4C130.335 3.14667 130.708 4.4 130.708 6.16V13.2C130.708 16.8267 129.162 18.64 126.068 18.64ZM123.428 5.28V14.36H124.588C125.228 14.36 125.642 14.1867 125.828 13.84C126.042 13.4667 126.148 12.92 126.148 12.2V7.32C126.148 6.65333 126.042 6.14666 125.828 5.8C125.615 5.45333 125.202 5.28 124.588 5.28H123.428ZM136.749 1.24V31H132.229V1.24H136.749ZM138.036 1.24H150.116V5.56H146.316V31H141.836V5.56H138.036V1.24ZM158.968 31L158.368 25.4H155.048L154.488 31H150.448L154.088 1.24H159.448L163.328 31H158.968ZM156.688 9.96L155.528 20.96H157.888L156.688 9.96ZM164.221 1.24H168.741V26.4H174.261V31H164.221V1.24Z" fill="#9B806C"/>
</svg>
