<svg width="247" height="104" viewBox="0 0 247 104" fill="none" xmlns="http://www.w3.org/2000/svg">
<g opacity="0.71" filter="url(#filter0_f_14_4173)">
<path d="M42.692 36.96H43.532C45.372 36.96 46.692 37.3733 47.492 38.2C48.292 39.0267 48.692 40.3333 48.692 42.12V47H44.332V42.72C44.332 41.5467 43.9054 40.96 43.052 40.96C42.5454 40.96 42.1987 41.12 42.012 41.44C41.8254 41.76 41.732 42.2933 41.732 43.04V43.6C41.732 44.4533 41.852 45.1867 42.092 45.8C42.332 46.4133 42.8254 47.2 43.572 48.16L46.452 51.88C47.492 53.24 48.1987 54.4267 48.572 55.44C48.9454 56.4267 49.132 57.7467 49.132 59.4V60.36C49.132 65 47.1854 67.32 43.292 67.32H42.412C38.732 67.32 36.892 65.44 36.892 61.68V55.72H41.372V60.92C41.372 62.3067 41.8654 63 42.852 63C43.3854 63 43.7587 62.8133 43.972 62.44C44.212 62.04 44.332 61.3733 44.332 60.44V59.76C44.332 58.6667 44.2254 57.8267 44.012 57.24C43.7987 56.6533 43.292 55.8267 42.492 54.76L39.612 51.08C38.6787 49.8533 38.0254 48.7067 37.652 47.64C37.3054 46.5467 37.132 45.24 37.132 43.72V42.76C37.132 38.8933 38.9854 36.96 42.692 36.96ZM55.0923 53.92V67H50.5723V37.24H55.0923V49.16H58.1723V37.24H62.6923V67H58.1723V53.92H55.0923ZM72.0777 67L71.4777 61.4H68.1577L67.5977 67H63.5577L67.1977 37.24H72.5577L76.4377 67H72.0777ZM69.7977 45.96L68.6377 56.96H70.9977L69.7977 45.96ZM77.3302 67V37.24H83.1302L85.2902 52.96L87.4902 37.24H92.8902V67H88.6502V47.76L85.9302 67H84.1302L81.3702 47.76V67H77.3302ZM106.953 43.76V60.36C106.953 65.0267 105.033 67.36 101.193 67.36H100.433C96.5396 67.36 94.593 65.0267 94.593 60.36V43.8C94.593 39.24 96.5263 36.96 100.393 36.96H101.153C103.233 36.96 104.713 37.5467 105.593 38.72C106.5 39.8933 106.953 41.5733 106.953 43.76ZM102.353 60.68V43.56C102.353 42.04 101.833 41.28 100.793 41.28C99.7263 41.28 99.193 42.04 99.193 43.56V60.68C99.193 62.2 99.7396 62.96 100.833 62.96C101.846 62.96 102.353 62.2 102.353 60.68ZM111.538 67L107.778 37.24H112.378L114.418 57.72L116.498 37.24H120.778L117.018 67H111.538ZM121.464 53.12H127.104V57.04H121.464V53.12ZM136.058 60.96V54.04H140.498V60.92C140.498 65.2133 138.698 67.36 135.098 67.36H134.098C130.392 67.36 128.538 65.2667 128.538 61.08V42.92C128.538 41.2133 128.965 39.8 129.818 38.68C130.672 37.5333 132.045 36.96 133.938 36.96H134.978C136.152 36.96 137.125 37.1333 137.898 37.48C138.698 37.8267 139.272 38.3333 139.618 39C139.965 39.6667 140.192 40.32 140.298 40.96C140.432 41.5733 140.498 42.3067 140.498 43.16V48.48H136.058V43.24C136.058 41.9333 135.552 41.28 134.538 41.28C134.005 41.28 133.632 41.44 133.418 41.76C133.232 42.0533 133.138 42.5467 133.138 43.24V60.92C133.138 62.28 133.618 62.96 134.578 62.96C135.565 62.96 136.058 62.2933 136.058 60.96ZM149.656 67L149.056 61.4H145.736L145.176 67H141.136L144.776 37.24H150.136L154.016 67H149.656ZM147.376 45.96L146.216 56.96H148.576L147.376 45.96ZM162.068 54.64H159.428V67H154.908V37.24H162.068C163.695 37.24 164.868 37.6267 165.588 38.4C166.335 39.1467 166.708 40.4 166.708 42.16V49.2C166.708 52.8267 165.162 54.64 162.068 54.64ZM159.428 41.28V50.36H160.588C161.228 50.36 161.642 50.1867 161.828 49.84C162.042 49.4667 162.148 48.92 162.148 48.2V43.32C162.148 42.6533 162.042 42.1467 161.828 41.8C161.615 41.4533 161.202 41.28 160.588 41.28H159.428ZM172.749 37.24V67H168.229V37.24H172.749ZM174.036 37.24H186.116V41.56H182.316V67H177.836V41.56H174.036V37.24ZM194.968 67L194.368 61.4H191.048L190.488 67H186.448L190.088 37.24H195.448L199.328 67H194.968ZM192.688 45.96L191.528 56.96H193.888L192.688 45.96ZM200.221 37.24H204.741V62.4H210.261V67H200.221V37.24Z" fill="#DF9964"/>
</g>
<defs>
<filter id="filter0_f_14_4173" x="0.892029" y="0.959999" width="245.369" height="102.4" filterUnits="userSpaceOnUse" color-interpolation-filters="sRGB">
<feFlood flood-opacity="0" result="BackgroundImageFix"/>
<feBlend mode="normal" in="SourceGraphic" in2="BackgroundImageFix" result="shape"/>
<feGaussianBlur stdDeviation="18" result="effect1_foregroundBlur_14_4173"/>
</filter>
</defs>
</svg>
